<?xml version="1.0" encoding="UTF-8"?>
<!DOCTYPE svg PUBLIC "-//W3C//DTD SVG 1.1//EN" "http://www.w3.org/Graphics/SVG/1.1/DTD/svg11.dtd">
<svg xmlns="http://www.w3.org/2000/svg" xml:space="preserve" width="28.412mm" height="28.412mm" version="1.1" style="shape-rendering:geometricPrecision; text-rendering:geometricPrecision; image-rendering:optimizeQuality; fill-rule:evenodd; clip-rule:evenodd"
viewBox="0 0 1072 1072"
 xmlns:xlink="http://www.w3.org/1999/xlink">
 <defs>
  <style type="text/css">
   <![CDATA[
    .fil0 {fill:none}
    .fil1 {fill:#F39FBB}
   ]]>
  </style>
 </defs>
 <g id="Layer_x0020_1">
  <rect class="fil0" width="1072" height="1072"/>
  <path class="fil1" d="M182 535c1,-82 28,-154 75,-220 42,-55 113,-99 178,-119 61,-17 139,-17 200,0 26,8 72,32 93,50 21,18 33,32 58,46 58,34 56,47 75,108 9,30 28,94 29,125 -1,33 -4,44 -14,75 -8,26 -4,47 -13,74 -8,27 -18,50 -37,72 -10,12 -29,28 -42,41 -53,50 -118,86 -191,94 -69,7 -96,17 -163,-9 -25,-10 -31,-20 -60,-27 -30,-7 -44,-12 -66,-36 -12,-13 -23,-28 -35,-42 -58,-68 -85,-143 -87,-232zm105 -87l0 0c1,-1 3,0 4,1l11 27c1,1 0,3 -2,4l0 0c-1,1 -3,0 -4,-2l-11 -26c-1,-2 0,-4 2,-4zm100 13l0 0c1,1 4,2 5,1l23 -18c1,-1 1,-3 0,-4l0 0c-1,-2 -3,-2 -4,-1l-23 17c-1,2 -2,4 -1,5zm321 26l0 0c1,2 3,2 4,1l23 -17c1,-1 2,-4 0,-5l0 0c-1,-1 -3,-2 -4,-1l-23 18c-1,1 -2,3 0,4zm-160 229l0 0c2,2 4,2 5,1l23 -17c1,-2 1,-4 0,-5l0 0c-1,-1 -3,-2 -4,-1l-23 18c-1,1 -2,3 -1,4zm-201 -36l0 0c-1,2 -3,2 -5,1l-22 -17c-2,-1 -2,-3 -1,-5l0 0c1,-1 3,-2 5,0l22 17c2,1 2,3 1,4zm156 -391l0 0c-1,1 -3,1 -5,0l-23 -17c-1,-1 -1,-3 0,-5l0 0c1,-1 3,-1 4,0l23 17c2,1 2,3 1,5zm163 137l0 0c-1,1 -3,2 -4,1l-23 -18c-1,-1 -2,-3 -1,-4l0 0c1,-2 4,-2 5,-1l23 17c1,1 1,3 0,5zm-292 149l0 0c0,2 -1,3 -3,3l-29 1c-1,0 -3,-2 -3,-4l0 0c0,-2 2,-3 3,-3l29 0c2,0 3,1 3,3zm205 217l0 0c0,2 -2,3 -3,3l-29 0c-2,0 -3,-1 -3,-3l0 0c0,-2 1,-3 3,-3l29 0c1,0 3,1 3,3zm126 -176l0 0c2,1 2,3 2,4l-11 27c-1,1 -3,2 -4,1l0 0c-2,0 -3,-2 -2,-4l11 -26c0,-2 2,-3 4,-2zm-332 -289l0 0c2,1 2,3 2,4l-11 27c-1,1 -3,2 -5,1l0 0c-1,0 -2,-2 -1,-4l11 -26c0,-2 2,-3 4,-2zm251 -59l0 0c2,0 2,2 2,4l-11 26c-1,2 -3,3 -4,2l0 0c-2,-1 -3,-3 -2,-4l11 -27c0,-1 2,-2 4,-1zm93 97l0 0c2,0 4,0 5,2l11 26c1,2 0,4 -2,4l0 0c-1,1 -3,0 -4,-1l-11 -26c-1,-2 0,-4 1,-5zm73 177l0 0c2,-1 4,0 4,1l12 26c0,2 -1,4 -2,5l0 0c-2,0 -4,0 -4,-2l-12 -26c0,-2 0,-4 2,-4zm-99 187l0 0c2,-1 4,0 4,1l12 26c0,2 -1,4 -2,5l0 0c-2,0 -4,0 -5,-2l-11 -26c0,-2 0,-4 2,-4zm-269 10l0 0c1,-1 3,0 4,2l11 26c1,2 0,4 -2,4l0 0c-1,1 -3,0 -4,-1l-11 -27c-1,-1 0,-3 2,-4zm74 -395l0 0c2,-1 4,0 4,2l12 26c0,2 0,3 -2,4l0 0c-2,1 -4,0 -4,-2l-12 -26c0,-1 0,-3 2,-4zm-178 -51c46,-43 117,-73 180,-80 57,-6 128,5 180,30 23,12 61,41 77,60 22,28 41,52 66,78 24,27 20,36 27,70 5,27 13,63 8,89 -6,33 -7,35 -5,69 1,31 -15,48 -27,74 -4,10 -9,19 -13,28 -12,24 -24,43 -45,60 -11,10 -31,21 -44,30 -42,27 -88,47 -137,57 -67,13 -64,-21 -119,-16 -56,5 -56,3 -99,-34 -10,-8 -18,-13 -30,-18 -25,-11 -37,-17 -53,-42 -13,-22 -14,-30 -23,-51 -15,-37 -32,-49 -42,-93 -2,-9 -4,-18 -5,-27 -6,-54 0,-82 13,-135 14,-59 48,-107 91,-149zm158 177c13,-11 32,-19 49,-21 15,-2 34,1 48,8 6,3 17,11 21,16 6,8 11,14 18,21 6,8 5,10 7,19 1,7 3,17 2,24 -1,9 -2,9 -1,19 0,8 -4,13 -7,20 -2,2 -3,5 -4,7 -3,7 -6,12 -12,16 -3,3 -8,6 -12,9 -11,7 -24,12 -37,15 -18,3 -17,-6 -32,-4 -15,1 -15,0 -27,-9 -2,-3 -4,-4 -8,-5 -7,-3 -10,-5 -14,-12 -4,-6 -4,-8 -6,-14 -4,-9 -9,-13 -12,-25 0,-2 -1,-4 -1,-7 -2,-15 0,-22 4,-36 3,-16 13,-29 24,-41zm-19 -21c16,-15 42,-26 64,-29 21,-2 46,2 65,11 8,4 22,15 27,22 8,10 15,18 24,28 9,9 7,12 10,25 1,9 4,22 3,31 -3,12 -3,13 -2,25 0,11 -6,17 -10,27 -1,3 -3,6 -4,10 -5,8 -9,15 -16,21 -5,4 -12,8 -16,11 -15,10 -32,17 -49,20 -24,5 -23,-7 -43,-6 -20,2 -20,2 -35,-11 -4,-3 -7,-5 -11,-7 -9,-4 -13,-6 -19,-15 -5,-8 -5,-11 -8,-18 -6,-13 -12,-18 -15,-33 -1,-4 -2,-7 -2,-10 -2,-20 0,-30 4,-48 6,-22 18,-39 33,-54zm4 4c15,-15 40,-25 61,-27 20,-2 44,2 62,10 7,4 20,14 26,21 7,9 14,17 22,26 8,9 7,12 9,24 2,9 5,21 3,30 -2,12 -2,12 -2,24 1,10 -5,16 -9,25 -1,3 -3,7 -4,10 -4,8 -9,14 -15,20 -4,3 -11,7 -16,10 -14,10 -30,16 -46,20 -23,4 -22,-7 -41,-6 -19,2 -19,1 -34,-11 -3,-3 -6,-5 -10,-6 -9,-4 -12,-6 -18,-15 -4,-7 -5,-10 -8,-17 -5,-13 -11,-17 -14,-32 -1,-3 -1,-6 -2,-9 -2,-18 0,-28 5,-46 5,-20 16,-36 31,-51zm-146 -163c47,-44 119,-74 182,-81 58,-6 130,6 183,31 23,11 61,41 78,60 22,28 41,53 66,79 25,27 21,36 28,71 5,27 13,63 8,90 -6,33 -7,35 -6,70 2,31 -14,48 -27,75 -4,10 -8,19 -12,29 -12,23 -25,43 -46,60 -11,10 -31,21 -45,31 -42,27 -89,47 -139,57 -67,13 -64,-21 -119,-16 -57,5 -58,3 -101,-34 -10,-9 -18,-13 -30,-19 -26,-11 -38,-17 -54,-43 -14,-22 -15,-30 -24,-51 -15,-37 -32,-50 -42,-94 -2,-9 -4,-18 -5,-27 -6,-55 0,-84 13,-137 15,-60 49,-108 92,-151z"/>
 </g>
</svg>
